<svg xmlns="http://www.w3.org/2000/svg" width="1180" height="710" viewBox="0 0 1180 710" role="img" aria-label="Muhammed Mufeed K M GitHub profile banner">
<defs>
<linearGradient id="accent" x1="0" y1="0" x2="1" y2="0"><stop stop-color="#2563EB"><animate attributeName="stop-color" values="#2563EB;#8B5CF6;#10B981;#2563EB" dur="9s" repeatCount="indefinite"/></stop><stop offset=".5" stop-color="#8B5CF6"/><stop offset="1" stop-color="#10B981"/></linearGradient>
<radialGradient id="g1"><stop stop-color="#2563EB" stop-opacity=".08"/><stop offset="1" stop-color="#2563EB" stop-opacity="0"/></radialGradient><radialGradient id="g2"><stop stop-color="#8B5CF6" stop-opacity=".07"/><stop offset="1" stop-color="#8B5CF6" stop-opacity="0"/></radialGradient>
<filter id="shadow" x="-20%" y="-20%" width="140%" height="140%"><feDropShadow dx="0" dy="10" stdDeviation="14" flood-color="#000" flood-opacity=".12"/></filter>
<filter id="softGlow" x="-30%" y="-30%" width="160%" height="160%"><feGaussianBlur stdDeviation="1.1" result="b"/><feMerge><feMergeNode in="b"/><feMergeNode in="SourceGraphic"/></feMerge></filter>
<clipPath id="outer"><rect width="1180" height="710" rx="22"/></clipPath><clipPath id="asciiClip"><rect x="28" y="58" width="408" height="425" rx="10"/></clipPath>
<style>
.ascii{font:700 7.35px "SFMono-Regular",Consolas,monospace;white-space:pre;fill:url(#accent);letter-spacing:0}
.top{font:600 11px "SFMono-Regular",Consolas,monospace;fill:#475569}.hello{font:600 18px Inter,-apple-system,sans-serif;fill:#0F172A}.name{font:800 34px Inter,-apple-system,sans-serif;letter-spacing:-1px;fill:url(#accent)}.designation{font:700 13px Inter,-apple-system,sans-serif;fill:#2563EB}.label{font:700 11px Inter,-apple-system,sans-serif;fill:#0F172A}.value{font:500 11.5px Inter,-apple-system,sans-serif;fill:#475569}.section{font:700 13px Inter,-apple-system,sans-serif;fill:#0F172A}.skill{font:600 9.2px Inter,-apple-system,sans-serif;fill:#0F172A}.social{font:700 11px Inter,-apple-system,sans-serif;fill:#0F172A}
</style></defs>
<g clip-path="url(#outer)"><rect width="1180" height="710" fill="#F8FAFC"/><circle cx="110" cy="40" r="250" fill="url(#g1)"/><circle cx="1030" cy="90" r="280" fill="url(#g2)"/>
<g filter="url(#shadow)"><rect x="18" y="14" width="428" height="492" rx="18" fill="#FFFFFF" stroke="url(#accent)" stroke-opacity=".55"/></g>
<text x="38" y="43" class="top"><tspan fill="#2563EB">user@Mufeed</tspan>:~$ cat profile.txt</text>
<g clip-path="url(#asciiClip)">
      <!-- Fill the portrait outline area: wider ASCII render, clipped safely inside the box -->
      <g transform="translate(-35 -8) scale(1.16 1.055)"><text x="226" y="76.0" text-anchor="middle" class="ascii" opacity="0">@@@@@@@@@@@%%%@%%%%%%%%%%######*****########**##***##%%%%%%%@<animate attributeName="opacity" from="0" to="1" dur=".15s" begin="0.000s" fill="freeze"/></text><text x="226" y="85.0" text-anchor="middle" class="ascii" opacity="0">@@@@@@@@@@@@%%%%%%%%%#####************#####*********###%%%%@@<animate attributeName="opacity" from="0" to="1" dur=".15s" begin="0.022s" fill="freeze"/></text><text x="226" y="94.0" text-anchor="middle" class="ascii" opacity="0">@@@@@@@@@@@@%%%%%########***++*********####****###**####%%%@@<animate attributeName="opacity" from="0" to="1" dur=".15s" begin="0.044s" fill="freeze"/></text><text x="226" y="103.0" text-anchor="middle" class="ascii" opacity="0">@@@@@@@%@@%%%%%%######******##*********+****#*******#####%%%@<animate attributeName="opacity" from="0" to="1" dur=".15s" begin="0.066s" fill="freeze"/></text><text x="226" y="112.0" text-anchor="middle" class="ascii" opacity="0">@@@@@%%%%%%%%%%######***##%%%##%%%%#%##*************#####%%@@<animate attributeName="opacity" from="0" to="1" dur=".15s" begin="0.088s" fill="freeze"/></text><text x="226" y="121.0" text-anchor="middle" class="ascii" opacity="0">@@@@%%%%%%%%%#######*#%@@@@@@@@@%%@@@@@%#***********####%%%%@<animate attributeName="opacity" from="0" to="1" dur=".15s" begin="0.110s" fill="freeze"/></text><text x="226" y="130.0" text-anchor="middle" class="ascii" opacity="0">@@%%%%%%%%%%###***#%%%@@@%%%@@@@@#%@@@@%%#*++*******###%%%%%%<animate attributeName="opacity" from="0" to="1" dur=".15s" begin="0.132s" fill="freeze"/></text><text x="226" y="139.0" text-anchor="middle" class="ascii" opacity="0">@@%%%%%%%%%%###**##%@@%@@@@%@@@@@@%%%%@@@%%#*+****#####%%%%%%<animate attributeName="opacity" from="0" to="1" dur=".15s" begin="0.154s" fill="freeze"/></text><text x="226" y="148.0" text-anchor="middle" class="ascii" opacity="0">@%%%%%%%%%%####*+*@@@@@@@@@@@@@@@@@@@%@@@@@%%#+****######%%%%<animate attributeName="opacity" from="0" to="1" dur=".15s" begin="0.176s" fill="freeze"/></text><text x="226" y="157.0" text-anchor="middle" class="ascii" opacity="0">@%%%%%%%%%#####***%@@@@@@@@@@@@@@@@@@@@@%@@%%%*+****######%%%<animate attributeName="opacity" from="0" to="1" dur=".15s" begin="0.198s" fill="freeze"/></text><text x="226" y="166.0" text-anchor="middle" class="ascii" opacity="0">%%%%%%%######****+#@@@%#*+=-==+**###%%%@@@@@%%*=+***######%%%<animate attributeName="opacity" from="0" to="1" dur=".15s" begin="0.220s" fill="freeze"/></text><text x="226" y="175.0" text-anchor="middle" class="ascii" opacity="0">%%%%%########****+*@@%+=-:..    .. ..:-+%@@@@#+++++***###%%%%<animate attributeName="opacity" from="0" to="1" dur=".15s" begin="0.242s" fill="freeze"/></text><text x="226" y="184.0" text-anchor="middle" class="ascii" opacity="0">@%%%%#######*****+=#@#+=-:.           :-#@@@%*++++++***####%%<animate attributeName="opacity" from="0" to="1" dur=".15s" begin="0.264s" fill="freeze"/></text><text x="226" y="193.0" text-anchor="middle" class="ascii" opacity="0">%%%%%#####********==+=**=:.          .:=#@@#+++++++++***####%<animate attributeName="opacity" from="0" to="1" dur=".15s" begin="0.286s" fill="freeze"/></text><text x="226" y="202.0" text-anchor="middle" class="ascii" opacity="0">%%%%%%%#####******=. =##%%#+::.:-+++==--+##++++++++******##%%<animate attributeName="opacity" from="0" to="1" dur=".15s" begin="0.308s" fill="freeze"/></text><text x="226" y="211.0" text-anchor="middle" class="ascii" opacity="0">%%%%%%%%##*#*****==:.+#*##%%*:.+###++=- -=+++***+++*****###%%<animate attributeName="opacity" from="0" to="1" dur=".15s" begin="0.330s" fill="freeze"/></text><text x="226" y="220.0" text-anchor="middle" class="ascii" opacity="0">%%%%%%%%#*******+:+=:+**++=*-  :==#++-: :::++***+++****###%%%<animate attributeName="opacity" from="0" to="1" dur=".15s" begin="0.352s" fill="freeze"/></text><text x="226" y="229.0" text-anchor="middle" class="ascii" opacity="0">%%%%%%%%##******+:=:-:.:::==     .::. . -..=*+**++*****###%%%<animate attributeName="opacity" from="0" to="1" dur=".15s" begin="0.374s" fill="freeze"/></text><text x="226" y="238.0" text-anchor="middle" class="ascii" opacity="0">%%%%%%%######***+:+--.  .-=:            . .+*+++++*****###%%%<animate attributeName="opacity" from="0" to="1" dur=".15s" begin="0.396s" fill="freeze"/></text><text x="226" y="247.0" text-anchor="middle" class="ascii" opacity="0">%%%%%%%######****-=:--::-+#+--=:...   ..  -*++++++****####%%%<animate attributeName="opacity" from="0" to="1" dur=".15s" begin="0.418s" fill="freeze"/></text><text x="226" y="256.0" text-anchor="middle" class="ascii" opacity="0">%%%%%%%#######****+:=++****=:::...:..:...:**++++++****#######<animate attributeName="opacity" from="0" to="1" dur=".15s" begin="0.440s" fill="freeze"/></text><text x="226" y="265.0" text-anchor="middle" class="ascii" opacity="0">%%%%%%###***###****-=++**#*+=------..::=+***+++++++***####%%%<animate attributeName="opacity" from="0" to="1" dur=".15s" begin="0.462s" fill="freeze"/></text><text x="226" y="274.0" text-anchor="middle" class="ascii" opacity="0">%%%%%%####*********+.++===+-=-----::--=*******++++***#####%%%<animate attributeName="opacity" from="0" to="1" dur=".15s" begin="0.484s" fill="freeze"/></text><text x="226" y="283.0" text-anchor="middle" class="ascii" opacity="0">%%%%%%####******####=-*==-:--:....-=+-+******++++***#####%%%%<animate attributeName="opacity" from="0" to="1" dur=".15s" begin="0.506s" fill="freeze"/></text><text x="226" y="292.0" text-anchor="middle" class="ascii" opacity="0">@%%%%%####******###**:=+=:.    .:-++--++*************###%%%%%<animate attributeName="opacity" from="0" to="1" dur=".15s" begin="0.528s" fill="freeze"/></text><text x="226" y="301.0" text-anchor="middle" class="ascii" opacity="0">@@%%%%%######********:=*##+---=+**+-:#%*=*************##%%%%%<animate attributeName="opacity" from="0" to="1" dur=".15s" begin="0.550s" fill="freeze"/></text><text x="226" y="310.0" text-anchor="middle" class="ascii" opacity="0">@@@%%%########****#*#*+**#%%%%##+-.-#%%%#++**###*****##%%%%%@<animate attributeName="opacity" from="0" to="1" dur=".15s" begin="0.572s" fill="freeze"/></text><text x="226" y="319.0" text-anchor="middle" class="ascii" opacity="0">@@@@%%%%%%%%###**++=@@#****++=-:::=%%%%#%%*++++*###*###%%%%%%<animate attributeName="opacity" from="0" to="1" dur=".15s" begin="0.594s" fill="freeze"/></text><text x="226" y="328.0" text-anchor="middle" class="ascii" opacity="0">@@@@%%%%%%%%##****-#@@%#***+=-::-*%%%%####%%%#*==+*###%%%%%%%<animate attributeName="opacity" from="0" to="1" dur=".15s" begin="0.616s" fill="freeze"/></text><text x="226" y="337.0" text-anchor="middle" class="ascii" opacity="0">@@@@%%%%%#**##%%%-*@%@%%**+==--=#%#%%######%%@@%#*+++*#%@@@@@<animate attributeName="opacity" from="0" to="1" dur=".15s" begin="0.638s" fill="freeze"/></text><text x="226" y="346.0" text-anchor="middle" class="ascii" opacity="0">@@@@@%#***#%@@%%==@@%%###+++==*%%%%%%####%%%@@%%@@@%#****#%@@<animate attributeName="opacity" from="0" to="1" dur=".15s" begin="0.660s" fill="freeze"/></text><text x="226" y="355.0" text-anchor="middle" class="ascii" opacity="0">@@@%##*#%@@@@@@@*#@@@%*+=:-+%%@@@%%%###%%%%@@@%%%%%%@@@%%###%<animate attributeName="opacity" from="0" to="1" dur=".15s" begin="0.682s" fill="freeze"/></text><text x="226" y="364.0" text-anchor="middle" class="ascii" opacity="0">@@@#%@@@@@@@@@@@@@@@@@@%+==%@%@@@@%#####%%%%%@%%%%%%%%%%%%%%#<animate attributeName="opacity" from="0" to="1" dur=".15s" begin="0.704s" fill="freeze"/></text><text x="226" y="373.0" text-anchor="middle" class="ascii" opacity="0">@@#%@@@@@@@@@@@@%%@@@@@@@%*#%@@@@@%###%%%%%%@%%%%%%%%%%%%%%@@<animate attributeName="opacity" from="0" to="1" dur=".15s" begin="0.726s" fill="freeze"/></text><text x="226" y="382.0" text-anchor="middle" class="ascii" opacity="0">@@*@@@@@@@@@@@@@%@@@@@@@@@%%@@@%@@###%%%%%%@%%%%%%%%%%%#%%%@@<animate attributeName="opacity" from="0" to="1" dur=".15s" begin="0.748s" fill="freeze"/></text><text x="226" y="391.0" text-anchor="middle" class="ascii" opacity="0">@%#@@@@@@@@@@@@@%@@@@@%@@@@@@@%@@%###%%%%%%%%%%%%%%#%%#%%%@@@<animate attributeName="opacity" from="0" to="1" dur=".15s" begin="0.770s" fill="freeze"/></text><text x="226" y="400.0" text-anchor="middle" class="ascii" opacity="0">@##@@@@@@@@@@@@@%@@@@@@%%#@@@%%@%###%%%%%%%%%%%%%%%#%%%%%@@@@<animate attributeName="opacity" from="0" to="1" dur=".15s" begin="0.792s" fill="freeze"/></text><text x="226" y="409.0" text-anchor="middle" class="ascii" opacity="0">@#%@@@@@@@@@@@@%%@@@@@@%##@@@%@@%##%%%%%%%%##%%%%%%%%%%%%%%@@<animate attributeName="opacity" from="0" to="1" dur=".15s" begin="0.814s" fill="freeze"/></text><text x="226" y="418.0" text-anchor="middle" class="ascii" opacity="0">@%@@@@@@@@@@@@@%%@@@@@@%%%@@%@@%###%%%%%%%##%%%%%%%@%%%%%%%@@<animate attributeName="opacity" from="0" to="1" dur=".15s" begin="0.836s" fill="freeze"/></text><text x="226" y="427.0" text-anchor="middle" class="ascii" opacity="0">%%@@@@@@@@@@@@@%%@@@@%@%%%@@%@%##%%%%%%%%%%%%%%%%%@@%%@@@%%@@<animate attributeName="opacity" from="0" to="1" dur=".15s" begin="0.858s" fill="freeze"/></text><text x="226" y="436.0" text-anchor="middle" class="ascii" opacity="0">%@@@@@@@@@@@@@@@%@@@@%@%%%@@@@%%%%%%%%%%%%%%%%%%%@@%%%%%%%@@@<animate attributeName="opacity" from="0" to="1" dur=".15s" begin="0.880s" fill="freeze"/></text><text x="226" y="445.0" text-anchor="middle" class="ascii" opacity="0">%@@@@@@@@@@@@@@@%@@@@@@@@@@@@%%%%%%%%%%%%%%%%%%%@@@@%%%%%@@@@<animate attributeName="opacity" from="0" to="1" dur=".15s" begin="0.902s" fill="freeze"/></text><text x="226" y="454.0" text-anchor="middle" class="ascii" opacity="0">@@@@@@@@@@@@@@@@%@@@@@@@@@@@%%%%%%%@%%%%%%%@@%@@@@@@@@@@@@@@@<animate attributeName="opacity" from="0" to="1" dur=".15s" begin="0.924s" fill="freeze"/></text><text x="226" y="463.0" text-anchor="middle" class="ascii" opacity="0">@@@@@@@@@@@@@@@@%@@@@@@@@@@@%%%%%@%%%%%%%%%%%@@@@@@@@@@@@@@@@<animate attributeName="opacity" from="0" to="1" dur=".15s" begin="0.946s" fill="freeze"/></text><text x="226" y="472.0" text-anchor="middle" class="ascii" opacity="0">@@@@@@@@@@@@@@@@@@@@@@@%@@@@%%%%@@@@%%%%%@@@@@@@@@@@@@@@@@@@@<animate attributeName="opacity" from="0" to="1" dur=".15s" begin="0.968s" fill="freeze"/></text></g><rect x="28" y="58" width="408" height="2" fill="#2563EB" opacity=".4"><animate attributeName="y" values="58;486" dur="4.8s" repeatCount="indefinite"/></rect></g>
<text x="38" y="494" class="top" fill="#10B981">profile.rendered ✓</text>

<g filter="url(#shadow)"><rect x="454" y="14" width="708" height="492" rx="18" fill="#FFFFFF" stroke="url(#accent)" stroke-opacity=".58"/></g>
<circle cx="475" cy="40" r="5" fill="#FB7185"/><circle cx="492" cy="40" r="5" fill="#FBBF24"/><circle cx="509" cy="40" r="5" fill="#34D399"/>
<text x="540" y="44" class="top"><tspan fill="#10B981">mufeed@cyber-sec</tspan>:~$ whoami</text><text x="1134" y="44" text-anchor="end" class="top" fill="#2563EB">&lt;/&gt; Secure · Analyze · Protect</text><path d="M454 62H1162" stroke="#CBD5E1" stroke-opacity=".6"/>
<text x="478" y="96" class="hello">Hi there 👋</text><text x="478" y="141" class="name">MUHAMMED MUFEED K M</text>
<rect x="478" y="158" width="505" height="34" rx="10" fill="#2563EB" fill-opacity=".07" stroke="url(#accent)" stroke-opacity=".7"/><text x="495" y="180" class="designation">◈  Cyber Security Facilitator &amp; Cybersecurity Researcher (R&amp;D Team)</text><rect x="964" y="168" width="7" height="15" fill="#2563EB"><animate attributeName="opacity" values="1;0;1" dur=".9s" repeatCount="indefinite"/></rect>
<path d="M478 206H1138" stroke="#CBD5E1" stroke-dasharray="2 3" stroke-opacity=".65"/><g opacity="0"><g transform="translate(458 231)" fill="#8B5CF6" color="#8B5CF6"><path d="M8 1.5A5.5 5.5 0 0 0 2.5 7c0 4 5.5 9 5.5 9s5.5-5 5.5-9A5.5 5.5 0 0 0 8 1.5Zm0 7.3A2 2 0 1 1 8 4.8a2 2 0 0 1 0 4Z"/></g><text x="482" y="244" class="label">Location</text><text x="580" y="244" class="value">Kochi, Kerala, India</text><animate attributeName="opacity" values="0;1" dur=".4s" begin="0.60s" fill="freeze"/></g><g opacity="0"><g transform="translate(458 269)" fill="#8B5CF6" color="#8B5CF6"><path d="M1 5 8 1.8 15 5 8 8.5 1 5Zm2.5 2.5V11c2.8 2 6.2 2 9 0V7.5L8 10 3.5 7.5Z"/></g><text x="482" y="282" class="label">Education</text><text x="580" y="282" class="value">B.Tech IT</text><animate attributeName="opacity" values="0;1" dur=".4s" begin="0.72s" fill="freeze"/></g><g opacity="0"><g transform="translate(458 307)" fill="#8B5CF6" color="#8B5CF6"><circle cx="8" cy="8" r="6" fill="none" stroke="currentColor" stroke-width="1.6"/><circle cx="8" cy="8" r="2.3"/><path d="M8 0v3M8 13v3M0 8h3M13 8h3" stroke="currentColor" stroke-width="1.3"/></g><text x="482" y="320" class="label">Current Focus</text><text x="580" y="320" class="value">VAPT · SOC Monitoring · Threat Research</text><animate attributeName="opacity" values="0;1" dur=".4s" begin="0.84s" fill="freeze"/></g><g opacity="0"><g transform="translate(458 345)" fill="#8B5CF6" color="#8B5CF6"><path d="M6.5 10.5 5 12a3 3 0 0 1-4-4l2.5-2.5a3 3 0 0 1 4 0l.7.7-1.5 1.5-.7-.7a.9.9 0 0 0-1.2 0L2.4 9.4a.9.9 0 0 0 1.2 1.2L5 9.2l1.5 1.3Zm3-5L11 4a3 3 0 0 1 4 4l-2.5 2.5a3 3 0 0 1-4 0l-.7-.7 1.5-1.5.7.7a.9.9 0 0 0 1.2 0l2.4-2.4a.9.9 0 0 0-1.2-1.2L11 6.8 9.5 5.5Z"/></g><text x="482" y="358" class="label">Portfolio</text><text x="580" y="358" class="value">mufeedkm010.github.io/mufeed-portfolio</text><animate attributeName="opacity" values="0;1" dur=".4s" begin="0.96s" fill="freeze"/></g><g opacity="0"><g transform="translate(458 383)" fill="#8B5CF6" color="#8B5CF6"><path d="M1 3h14v10H1V3Zm1.5 1.5L8 8.5l5.5-4H2.5ZM2.5 11.5h11V6.3L8 10.2 2.5 6.3v5.2Z"/></g><text x="482" y="396" class="label">Email</text><text x="580" y="396" class="value">mufeedkm010@gmail.com</text><animate attributeName="opacity" values="0;1" dur=".4s" begin="1.08s" fill="freeze"/></g><g opacity="0"><g transform="translate(458 421)" fill="#8B5CF6" color="#8B5CF6"><path d="M3 1.5 6 4.3 4.5 6c1 2.2 2.8 4 5 5l1.7-1.5 2.8 2.9-1.8 2c-.5.6-1.2.7-1.9.5C5.6 13.6 2.3 10.4 1 5.6.8 5 1 4.2 1.5 3.7L3 1.5Z"/></g><text x="482" y="434" class="label">Phone</text><text x="580" y="434" class="value">9342934469</text><animate attributeName="opacity" values="0;1" dur=".4s" begin="1.20s" fill="freeze"/></g>
<path d="M478 445H1138" stroke="#CBD5E1" stroke-opacity=".65"/><text x="478" y="474" class="section">Connect with me</text>
<g transform="translate(616 454)"><rect width="510" height="34" rx="17" fill="#F8FAFC" fill-opacity=".45" stroke="#CBD5E1" stroke-opacity=".45"/><g transform="translate(18 9)"><rect x="2" y="2" width="12" height="12" rx="2" transform="rotate(45 8 8)" fill="#F05032"/><circle cx="6" cy="6" r="1.3" fill="white"/><circle cx="10" cy="10" r="1.3" fill="white"/><path d="M6 6l4 4M8 8l2-2" stroke="white" stroke-width="1"/></g><text x="42" y="22" class="social">GitHub</text><rect x="128" y="9" width="16" height="16" rx="2" fill="#0A66C2"/><text x="136" y="21" text-anchor="middle" font-size="12" font-weight="800" fill="white">in</text><text x="152" y="22" class="social">LinkedIn</text><g transform="translate(270 9)" fill="#8B5CF6" color="#8B5CF6"><path d="M6.5 10.5 5 12a3 3 0 0 1-4-4l2.5-2.5a3 3 0 0 1 4 0l.7.7-1.5 1.5-.7-.7a.9.9 0 0 0-1.2 0L2.4 9.4a.9.9 0 0 0 1.2 1.2L5 9.2l1.5 1.3Zm3-5L11 4a3 3 0 0 1 4 4l-2.5 2.5a3 3 0 0 1-4 0l-.7-.7 1.5-1.5.7.7a.9.9 0 0 0 1.2 0l2.4-2.4a.9.9 0 0 0-1.2-1.2L11 6.8 9.5 5.5Z"/></g><text x="294" y="22" class="social">Portfolio</text><g transform="translate(398 9)" fill="#10B981" color="#10B981"><path d="M1 3h14v10H1V3Zm1.5 1.5L8 8.5l5.5-4H2.5ZM2.5 11.5h11V6.3L8 10.2 2.5 6.3v5.2Z"/></g><text x="422" y="22" class="social">Email</text></g>

<!-- Separate full-width Skills & Tools panel -->
<g filter="url(#shadow)">
  <rect x="18" y="516" width="1144" height="180" rx="18" fill="#FFFFFF" stroke="url(#accent)" stroke-opacity=".58"/>
</g>
<text x="42" y="548" class="section">⚡ Skills &amp; Tools</text>
<text x="1138" y="548" text-anchor="end" class="top" fill="#2563EB">SECURITY · DEVELOPMENT · CLOUD</text>
<path d="M42 560H1138" stroke="#CBD5E1" stroke-opacity=".45"/>
<g transform="translate(42 578)">
          <rect width="208" height="26" rx="8" fill="#F8FAFC" fill-opacity=".68" stroke="#CBD5E1" stroke-opacity=".72"/>
          <rect x="7" y="4" width="28" height="18" rx="5" fill="#FFFFFF" stroke="url(#accent)" stroke-opacity=".35"/>
          <g transform="translate(12 4) scale(.78)"><path d="M2 8c7-6 15-4 20 1-7-1-12 2-15 8 4-2 8-1 12 2-8 4-15 2-18-4 5 0 9-2 12-5-5 2-8 1-11-2Z" fill="#557C94"/></g>
          <text x="44" y="17.5" class="skill">Kali Linux</text>
        </g><g transform="translate(264 578)">
          <rect width="208" height="26" rx="8" fill="#F8FAFC" fill-opacity=".68" stroke="#CBD5E1" stroke-opacity=".72"/>
          <rect x="7" y="4" width="28" height="18" rx="5" fill="#FFFFFF" stroke="url(#accent)" stroke-opacity=".35"/>
          <g transform="translate(12 4) scale(.78)"><circle cx="12" cy="12" r="9" fill="none" stroke="#38BDF8" stroke-width="2"/><path d="M12 3v18M3 12h18M6 6l12 12M18 6 6 18" stroke="#38BDF8" stroke-width="1"/></g>
          <text x="44" y="17.5" class="skill">Nmap</text>
        </g><g transform="translate(486 578)">
          <rect width="208" height="26" rx="8" fill="#F8FAFC" fill-opacity=".68" stroke="#CBD5E1" stroke-opacity=".72"/>
          <rect x="7" y="4" width="28" height="18" rx="5" fill="#FFFFFF" stroke="url(#accent)" stroke-opacity=".35"/>
          <g transform="translate(12 4) scale(.78)"><rect x="1" y="1" width="22" height="22" rx="5" fill="#F97316"/><path d="m13 3-6 10h5l-2 8 7-12h-5l1-6Z" fill="white"/></g>
          <text x="44" y="17.5" class="skill">Burp Suite</text>
        </g><g transform="translate(708 578)">
          <rect width="208" height="26" rx="8" fill="#F8FAFC" fill-opacity=".68" stroke="#CBD5E1" stroke-opacity=".72"/>
          <rect x="7" y="4" width="28" height="18" rx="5" fill="#FFFFFF" stroke="url(#accent)" stroke-opacity=".35"/>
          <g transform="translate(12 4) scale(.78)"><path d="M3 21V4l9 6 9-6v17l-5-3V10l-4 3-4-3v8l-5 3Z" fill="#2563EB"/></g>
          <text x="44" y="17.5" class="skill">Metasploit</text>
        </g><g transform="translate(930 578)">
          <rect width="208" height="26" rx="8" fill="#F8FAFC" fill-opacity=".68" stroke="#CBD5E1" stroke-opacity=".72"/>
          <rect x="7" y="4" width="28" height="18" rx="5" fill="#FFFFFF" stroke="url(#accent)" stroke-opacity=".35"/>
          <g transform="translate(12 4) scale(.78)"><path d="M2 18c5-2 7-10 12-15 0 7 3 11 8 15H2Z" fill="#1679A7"/><path d="M3 20h19" stroke="#38BDF8" stroke-width="2"/></g>
          <text x="44" y="17.5" class="skill">Wireshark</text>
        </g><g transform="translate(42 624)">
          <rect width="208" height="26" rx="8" fill="#F8FAFC" fill-opacity=".68" stroke="#CBD5E1" stroke-opacity=".72"/>
          <rect x="7" y="4" width="28" height="18" rx="5" fill="#FFFFFF" stroke="url(#accent)" stroke-opacity=".35"/>
          <g transform="translate(12 4) scale(.78)"><path d="M12 2 21 7v10l-9 5-9-5V7l9-5Z" fill="none" stroke="#06B6D4" stroke-width="2"/></g>
          <text x="44" y="17.5" class="skill">Nessus</text>
        </g><g transform="translate(264 624)">
          <rect width="208" height="26" rx="8" fill="#F8FAFC" fill-opacity=".68" stroke="#CBD5E1" stroke-opacity=".72"/>
          <rect x="7" y="4" width="28" height="18" rx="5" fill="#FFFFFF" stroke="url(#accent)" stroke-opacity=".35"/>
          <g transform="translate(12 4) scale(.78)"><rect x="1" y="1" width="22" height="22" rx="5" fill="#111827"/><path d="m6 7 7 5-7 5M14 17h4" fill="none" stroke="#65A30D" stroke-width="2.2"/></g>
          <text x="44" y="17.5" class="skill">Splunk</text>
        </g><g transform="translate(486 624)">
          <rect width="208" height="26" rx="8" fill="#F8FAFC" fill-opacity=".68" stroke="#CBD5E1" stroke-opacity=".72"/>
          <rect x="7" y="4" width="28" height="18" rx="5" fill="#FFFFFF" stroke="url(#accent)" stroke-opacity=".35"/>
          <g transform="translate(12 4) scale(.78)"><path d="M7 2h5c2 0 3 1 3 3v4H8c-2 0-3 1-3 3v2H3c-2 0-3-1-3-3V7c0-2 1-3 3-3h4V2Zm2 2a1 1 0 1 0 0 2 1 1 0 0 0 0-2Zm8 6h2c2 0 3 1 3 3v4c0 2-1 3-3 3h-4v2h-5c-2 0-3-1-3-3v-4h7c2 0 3-1 3-3v-2Zm-2 8a1 1 0 1 0 0 2 1 1 0 0 0 0-2Z" fill="#3776AB"/><path d="M7 2h5c2 0 3 1 3 3v4H8c-2 0-3 1-3 3v2H5v-2c0-3 1-5 5-5h5V5c0-2-1-3-3-3H7Z" fill="#FFD43B" opacity=".9"/></g>
          <text x="44" y="17.5" class="skill">Python</text>
        </g><g transform="translate(708 624)">
          <rect width="208" height="26" rx="8" fill="#F8FAFC" fill-opacity=".68" stroke="#CBD5E1" stroke-opacity=".72"/>
          <rect x="7" y="4" width="28" height="18" rx="5" fill="#FFFFFF" stroke="url(#accent)" stroke-opacity=".35"/>
          <g transform="translate(12 4) scale(.78)"><rect x="1" y="1" width="22" height="22" rx="5" fill="#111827" stroke="#64748B"/><path d="m5 7 5 5-5 5M12 17h6" fill="none" stroke="white" stroke-width="2"/></g>
          <text x="44" y="17.5" class="skill">Bash</text>
        </g><g transform="translate(930 624)">
          <rect width="208" height="26" rx="8" fill="#F8FAFC" fill-opacity=".68" stroke="#CBD5E1" stroke-opacity=".72"/>
          <rect x="7" y="4" width="28" height="18" rx="5" fill="#FFFFFF" stroke="url(#accent)" stroke-opacity=".35"/>
          <g transform="translate(12 4) scale(.78)"><circle cx="12" cy="12" r="10" fill="none" stroke="#0F172A" stroke-width="2"/><path d="m6 18 5-13 3 7 4-7" fill="none" stroke="#0F172A" stroke-width="2"/></g>
          <text x="44" y="17.5" class="skill">OWASP</text>
        </g><g transform="translate(42 670)">
          <rect width="208" height="26" rx="8" fill="#F8FAFC" fill-opacity=".68" stroke="#CBD5E1" stroke-opacity=".72"/>
          <rect x="7" y="4" width="28" height="18" rx="5" fill="#FFFFFF" stroke="url(#accent)" stroke-opacity=".35"/>
          <g transform="translate(12 4) scale(.78)"><ellipse cx="12" cy="13" rx="8" ry="10" fill="#111827"/><ellipse cx="12" cy="15" rx="5.5" ry="7" fill="#F8FAFC"/><circle cx="9.5" cy="8" r="1.4" fill="white"/><circle cx="14.5" cy="8" r="1.4" fill="white"/><path d="m9 11 3-2 3 2-3 2Z" fill="#FBBF24"/></g>
          <text x="44" y="17.5" class="skill">Linux</text>
        </g><g transform="translate(264 670)">
          <rect width="208" height="26" rx="8" fill="#F8FAFC" fill-opacity=".68" stroke="#CBD5E1" stroke-opacity=".72"/>
          <rect x="7" y="4" width="28" height="18" rx="5" fill="#FFFFFF" stroke="url(#accent)" stroke-opacity=".35"/>
          <g transform="translate(12 4) scale(.78)"><path d="M12 1 23 12 12 23 1 12 12 1Z" fill="#F05032"/><circle cx="8" cy="8" r="2" fill="white"/><circle cx="16" cy="16" r="2" fill="white"/><circle cx="16" cy="8" r="2" fill="white"/><path d="M9.5 9.5 14.5 14.5M10 8h4" stroke="white" stroke-width="1.8"/></g>
          <text x="44" y="17.5" class="skill">Git</text>
        </g><g transform="translate(486 670)">
          <rect width="208" height="26" rx="8" fill="#F8FAFC" fill-opacity=".68" stroke="#CBD5E1" stroke-opacity=".72"/>
          <rect x="7" y="4" width="28" height="18" rx="5" fill="#FFFFFF" stroke="url(#accent)" stroke-opacity=".35"/>
          <g transform="translate(12 4) scale(.78)"><g fill="#2496ED"><rect x="2" y="9" width="4" height="4"/><rect x="7" y="9" width="4" height="4"/><rect x="12" y="9" width="4" height="4"/><rect x="7" y="4" width="4" height="4"/><rect x="12" y="4" width="4" height="4"/><path d="M1 14h20c-.7 5-4.5 8-10 8-5 0-8.5-3-10-8Z"/></g></g>
          <text x="44" y="17.5" class="skill">Docker</text>
        </g><g transform="translate(708 670)">
          <rect width="208" height="26" rx="8" fill="#F8FAFC" fill-opacity=".68" stroke="#CBD5E1" stroke-opacity=".72"/>
          <rect x="7" y="4" width="28" height="18" rx="5" fill="#FFFFFF" stroke="url(#accent)" stroke-opacity=".35"/>
          <g transform="translate(12 4) scale(.78)"><g fill="none" stroke="#3B82F6" stroke-width="2"><ellipse cx="12" cy="5" rx="8" ry="3"/><path d="M4 5v14c0 2 16 2 16 0V5M4 12c0 2 16 2 16 0"/></g></g>
          <text x="44" y="17.5" class="skill">SQL</text>
        </g><g transform="translate(930 670)">
          <rect width="208" height="26" rx="8" fill="#F8FAFC" fill-opacity=".68" stroke="#CBD5E1" stroke-opacity=".72"/>
          <rect x="7" y="4" width="28" height="18" rx="5" fill="#FFFFFF" stroke="url(#accent)" stroke-opacity=".35"/>
          <g transform="translate(12 4) scale(.78)"><text x="12" y="12" text-anchor="middle" font-size="8" font-weight="800" fill="#0F172A">aws</text><path d="M4 16c5 3 11 3 16 0" fill="none" stroke="#FF9900" stroke-width="2" stroke-linecap="round"/></g>
          <text x="44" y="17.5" class="skill">AWS</text>
        </g>
<rect x="1" y="1" width="1178" height="708" rx="21" fill="none" stroke="url(#accent)" stroke-width="1" stroke-dasharray="220 960"><animate attributeName="stroke-dashoffset" values="0;-1180" dur="8s" repeatCount="indefinite"/></rect>
</g></svg>