<svg xmlns="http://www.w3.org/2000/svg" width="1180" height="520" viewBox="0 0 1180 520" role="img" aria-label="Muhammed Mufeed K M GitHub profile banner">
<defs>
<linearGradient id="accent" x1="0" y1="0" x2="1" y2="0"><stop stop-color="#2563EB"><animate attributeName="stop-color" values="#2563EB;#8B5CF6;#10B981;#2563EB" dur="9s" repeatCount="indefinite"/></stop><stop offset=".5" stop-color="#8B5CF6"/><stop offset="1" stop-color="#10B981"/></linearGradient>
<radialGradient id="g1"><stop stop-color="#2563EB" stop-opacity=".08"/><stop offset="1" stop-color="#2563EB" stop-opacity="0"/></radialGradient><radialGradient id="g2"><stop stop-color="#8B5CF6" stop-opacity=".07"/><stop offset="1" stop-color="#8B5CF6" stop-opacity="0"/></radialGradient>
<filter id="shadow" x="-20%" y="-20%" width="140%" height="140%"><feDropShadow dx="0" dy="10" stdDeviation="14" flood-color="#000" flood-opacity=".12"/></filter>
<filter id="softGlow" x="-30%" y="-30%" width="160%" height="160%"><feGaussianBlur stdDeviation="1.1" result="b"/><feMerge><feMergeNode in="b"/><feMergeNode in="SourceGraphic"/></feMerge></filter>
<clipPath id="outer"><rect width="1180" height="520" rx="22"/></clipPath><clipPath id="asciiClip"><rect x="28" y="58" width="408" height="425" rx="10"/></clipPath>
<style>
.ascii{font:700 7.35px "SFMono-Regular",Consolas,monospace;white-space:pre;fill:url(#accent);letter-spacing:0}
.top{font:600 11px "SFMono-Regular",Consolas,monospace;fill:#475569}.hello{font:600 18px Inter,-apple-system,sans-serif;fill:#0F172A}.name{font:800 34px Inter,-apple-system,sans-serif;letter-spacing:-1px;fill:url(#accent)}.designation{font:700 13px Inter,-apple-system,sans-serif;fill:#2563EB}.label{font:700 11px Inter,-apple-system,sans-serif;fill:#0F172A}.value{font:500 11.5px Inter,-apple-system,sans-serif;fill:#475569}.section{font:700 13px Inter,-apple-system,sans-serif;fill:#0F172A}.skill{font:600 9.2px Inter,-apple-system,sans-serif;fill:#0F172A}.social{font:700 11px Inter,-apple-system,sans-serif;fill:#0F172A}
</style></defs>
<g clip-path="url(#outer)"><rect width="1180" height="520" fill="#F8FAFC"/><circle cx="110" cy="40" r="250" fill="url(#g1)"/><circle cx="1030" cy="90" r="280" fill="url(#g2)"/>
<g filter="url(#shadow)"><rect x="18" y="14" width="428" height="492" rx="18" fill="#FFFFFF" stroke="url(#accent)" stroke-opacity=".55"/></g>
<text x="38" y="43" class="top"><tspan fill="#2563EB">user@Mufeed</tspan>:~$ cat profile.txt</text>
<g clip-path="url(#asciiClip)">
      <!-- Fill the portrait outline area: wider ASCII render, clipped safely inside the box -->
      <g transform="translate(-35 -8) scale(1.16 1.055)"><text x="226" y="76.0" text-anchor="middle" class="ascii" opacity="0">@@@@@@@@@@@%%%@%%%%%%%%%%######*****########**##***##%%%%%%%@<animate attributeName="opacity" from="0" to="1" dur=".15s" begin="0.000s" fill="freeze"/></text><text x="226" y="85.0" text-anchor="middle" class="ascii" opacity="0">@@@@@@@@@@@@%%%%%%%%%#####************#####*********###%%%%@@<animate attributeName="opacity" from="0" to="1" dur=".15s" begin="0.022s" fill="freeze"/></text><text x="226" y="94.0" text-anchor="middle" class="ascii" opacity="0">@@@@@@@@@@@@%%%%%########***++*********####****###**####%%%@@<animate attributeName="opacity" from="0" to="1" dur=".15s" begin="0.044s" fill="freeze"/></text><text x="226" y="103.0" text-anchor="middle" class="ascii" opacity="0">@@@@@@@%@@%%%%%%######******##*********+****#*******#####%%%@<animate attributeName="opacity" from="0" to="1" dur=".15s" begin="0.066s" fill="freeze"/></text><text x="226" y="112.0" text-anchor="middle" class="ascii" opacity="0">@@@@@%%%%%%%%%%######***##%%%##%%%%#%##*************#####%%@@<animate attributeName="opacity" from="0" to="1" dur=".15s" begin="0.088s" fill="freeze"/></text><text x="226" y="121.0" text-anchor="middle" class="ascii" opacity="0">@@@@%%%%%%%%%#######*#%@@@@@@@@@%%@@@@@%#***********####%%%%@<animate attributeName="opacity" from="0" to="1" dur=".15s" begin="0.110s" fill="freeze"/></text><text x="226" y="130.0" text-anchor="middle" class="ascii" opacity="0">@@%%%%%%%%%%###***#%%%@@@%%%@@@@@#%@@@@%%#*++*******###%%%%%%<animate attributeName="opacity" from="0" to="1" dur=".15s" begin="0.132s" fill="freeze"/></text><text x="226" y="139.0" text-anchor="middle" class="ascii" opacity="0">@@%%%%%%%%%%###**##%@@%@@@@%@@@@@@%%%%@@@%%#*+****#####%%%%%%<animate attributeName="opacity" from="0" to="1" dur=".15s" begin="0.154s" fill="freeze"/></text><text x="226" y="148.0" text-anchor="middle" class="ascii" opacity="0">@%%%%%%%%%%####*+*@@@@@@@@@@@@@@@@@@@%@@@@@%%#+****######%%%%<animate attributeName="opacity" from="0" to="1" dur=".15s" begin="0.176s" fill="freeze"/></text><text x="226" y="157.0" text-anchor="middle" class="ascii" opacity="0">@%%%%%%%%%#####***%@@@@@@@@@@@@@@@@@@@@@%@@%%%*+****######%%%<animate attributeName="opacity" from="0" to="1" dur=".15s" begin="0.198s" fill="freeze"/></text><text x="226" y="166.0" text-anchor="middle" class="ascii" opacity="0">%%%%%%%######****+#@@@%#*+=-==+**###%%%@@@@@%%*=+***######%%%<animate attributeName="opacity" from="0" to="1" dur=".15s" begin="0.220s" fill="freeze"/></text><text x="226" y="175.0" text-anchor="middle" class="ascii" opacity="0">%%%%%########****+*@@%+=-:..    .. ..:-+%@@@@#+++++***###%%%%<animate attributeName="opacity" from="0" to="1" dur=".15s" begin="0.242s" fill="freeze"/></text><text x="226" y="184.0" text-anchor="middle" class="ascii" opacity="0">@%%%%#######*****+=#@#+=-:.           :-#@@@%*++++++***####%%<animate attributeName="opacity" from="0" to="1" dur=".15s" begin="0.264s" fill="freeze"/></text><text x="226" y="193.0" text-anchor="middle" class="ascii" opacity="0">%%%%%#####********==+=**=:.          .:=#@@#+++++++++***####%<animate attributeName="opacity" from="0" to="1" dur=".15s" begin="0.286s" fill="freeze"/></text><text x="226" y="202.0" text-anchor="middle" class="ascii" opacity="0">%%%%%%%#####******=. =##%%#+::.:-+++==--+##++++++++******##%%<animate attributeName="opacity" from="0" to="1" dur=".15s" begin="0.308s" fill="freeze"/></text><text x="226" y="211.0" text-anchor="middle" class="ascii" opacity="0">%%%%%%%%##*#*****==:.+#*##%%*:.+###++=- -=+++***+++*****###%%<animate attributeName="opacity" from="0" to="1" dur=".15s" begin="0.330s" fill="freeze"/></text><text x="226" y="220.0" text-anchor="middle" class="ascii" opacity="0">%%%%%%%%#*******+:+=:+**++=*-  :==#++-: :::++***+++****###%%%<animate attributeName="opacity" from="0" to="1" dur=".15s" begin="0.352s" fill="freeze"/></text><text x="226" y="229.0" text-anchor="middle" class="ascii" opacity="0">%%%%%%%%##******+:=:-:.:::==     .::. . -..=*+**++*****###%%%<animate attributeName="opacity" from="0" to="1" dur=".15s" begin="0.374s" fill="freeze"/></text><text x="226" y="238.0" text-anchor="middle" class="ascii" opacity="0">%%%%%%%######***+:+--.  .-=:            . .+*+++++*****###%%%<animate attributeName="opacity" from="0" to="1" dur=".15s" begin="0.396s" fill="freeze"/></text><text x="226" y="247.0" text-anchor="middle" class="ascii" opacity="0">%%%%%%%######****-=:--::-+#+--=:...   ..  -*++++++****####%%%<animate attributeName="opacity" from="0" to="1" dur=".15s" begin="0.418s" fill="freeze"/></text><text x="226" y="256.0" text-anchor="middle" class="ascii" opacity="0">%%%%%%%#######****+:=++****=:::...:..:...:**++++++****#######<animate attributeName="opacity" from="0" to="1" dur=".15s" begin="0.440s" fill="freeze"/></text><text x="226" y="265.0" text-anchor="middle" class="ascii" opacity="0">%%%%%%###***###****-=++**#*+=------..::=+***+++++++***####%%%<animate attributeName="opacity" from="0" to="1" dur=".15s" begin="0.462s" fill="freeze"/></text><text x="226" y="274.0" text-anchor="middle" class="ascii" opacity="0">%%%%%%####*********+.++===+-=-----::--=*******++++***#####%%%<animate attributeName="opacity" from="0" to="1" dur=".15s" begin="0.484s" fill="freeze"/></text><text x="226" y="283.0" text-anchor="middle" class="ascii" opacity="0">%%%%%%####******####=-*==-:--:....-=+-+******++++***#####%%%%<animate attributeName="opacity" from="0" to="1" dur=".15s" begin="0.506s" fill="freeze"/></text><text x="226" y="292.0" text-anchor="middle" class="ascii" opacity="0">@%%%%%####******###**:=+=:.    .:-++--++*************###%%%%%<animate attributeName="opacity" from="0" to="1" dur=".15s" begin="0.528s" fill="freeze"/></text><text x="226" y="301.0" text-anchor="middle" class="ascii" opacity="0">@@%%%%%######********:=*##+---=+**+-:#%*=*************##%%%%%<animate attributeName="opacity" from="0" to="1" dur=".15s" begin="0.550s" fill="freeze"/></text><text x="226" y="310.0" text-anchor="middle" class="ascii" opacity="0">@@@%%%########****#*#*+**#%%%%##+-.-#%%%#++**###*****##%%%%%@<animate attributeName="opacity" from="0" to="1" dur=".15s" begin="0.572s" fill="freeze"/></text><text x="226" y="319.0" text-anchor="middle" class="ascii" opacity="0">@@@@%%%%%%%%###**++=@@#****++=-:::=%%%%#%%*++++*###*###%%%%%%<animate attributeName="opacity" from="0" to="1" dur=".15s" begin="0.594s" fill="freeze"/></text><text x="226" y="328.0" text-anchor="middle" class="ascii" opacity="0">@@@@%%%%%%%%##****-#@@%#***+=-::-*%%%%####%%%#*==+*###%%%%%%%<animate attributeName="opacity" from="0" to="1" dur=".15s" begin="0.616s" fill="freeze"/></text><text x="226" y="337.0" text-anchor="middle" class="ascii" opacity="0">@@@@%%%%%#**##%%%-*@%@%%**+==--=#%#%%######%%@@%#*+++*#%@@@@@<animate attributeName="opacity" from="0" to="1" dur=".15s" begin="0.638s" fill="freeze"/></text><text x="226" y="346.0" text-anchor="middle" class="ascii" opacity="0">@@@@@%#***#%@@%%==@@%%###+++==*%%%%%%####%%%@@%%@@@%#****#%@@<animate attributeName="opacity" from="0" to="1" dur=".15s" begin="0.660s" fill="freeze"/></text><text x="226" y="355.0" text-anchor="middle" class="ascii" opacity="0">@@@%##*#%@@@@@@@*#@@@%*+=:-+%%@@@%%%###%%%%@@@%%%%%%@@@%%###%<animate attributeName="opacity" from="0" to="1" dur=".15s" begin="0.682s" fill="freeze"/></text><text x="226" y="364.0" text-anchor="middle" class="ascii" opacity="0">@@@#%@@@@@@@@@@@@@@@@@@%+==%@%@@@@%#####%%%%%@%%%%%%%%%%%%%%#<animate attributeName="opacity" from="0" to="1" dur=".15s" begin="0.704s" fill="freeze"/></text><text x="226" y="373.0" text-anchor="middle" class="ascii" opacity="0">@@#%@@@@@@@@@@@@%%@@@@@@@%*#%@@@@@%###%%%%%%@%%%%%%%%%%%%%%@@<animate attributeName="opacity" from="0" to="1" dur=".15s" begin="0.726s" fill="freeze"/></text><text x="226" y="382.0" text-anchor="middle" class="ascii" opacity="0">@@*@@@@@@@@@@@@@%@@@@@@@@@%%@@@%@@###%%%%%%@%%%%%%%%%%%#%%%@@<animate attributeName="opacity" from="0" to="1" dur=".15s" begin="0.748s" fill="freeze"/></text><text x="226" y="391.0" text-anchor="middle" class="ascii" opacity="0">@%#@@@@@@@@@@@@@%@@@@@%@@@@@@@%@@%###%%%%%%%%%%%%%%#%%#%%%@@@<animate attributeName="opacity" from="0" to="1" dur=".15s" begin="0.770s" fill="freeze"/></text><text x="226" y="400.0" text-anchor="middle" class="ascii" opacity="0">@##@@@@@@@@@@@@@%@@@@@@%%#@@@%%@%###%%%%%%%%%%%%%%%#%%%%%@@@@<animate attributeName="opacity" from="0" to="1" dur=".15s" begin="0.792s" fill="freeze"/></text><text x="226" y="409.0" text-anchor="middle" class="ascii" opacity="0">@#%@@@@@@@@@@@@%%@@@@@@%##@@@%@@%##%%%%%%%%##%%%%%%%%%%%%%%@@<animate attributeName="opacity" from="0" to="1" dur=".15s" begin="0.814s" fill="freeze"/></text><text x="226" y="418.0" text-anchor="middle" class="ascii" opacity="0">@%@@@@@@@@@@@@@%%@@@@@@%%%@@%@@%###%%%%%%%##%%%%%%%@%%%%%%%@@<animate attributeName="opacity" from="0" to="1" dur=".15s" begin="0.836s" fill="freeze"/></text><text x="226" y="427.0" text-anchor="middle" class="ascii" opacity="0">%%@@@@@@@@@@@@@%%@@@@%@%%%@@%@%##%%%%%%%%%%%%%%%%%@@%%@@@%%@@<animate attributeName="opacity" from="0" to="1" dur=".15s" begin="0.858s" fill="freeze"/></text><text x="226" y="436.0" text-anchor="middle" class="ascii" opacity="0">%@@@@@@@@@@@@@@@%@@@@%@%%%@@@@%%%%%%%%%%%%%%%%%%%@@%%%%%%%@@@<animate attributeName="opacity" from="0" to="1" dur=".15s" begin="0.880s" fill="freeze"/></text><text x="226" y="445.0" text-anchor="middle" class="ascii" opacity="0">%@@@@@@@@@@@@@@@%@@@@@@@@@@@@%%%%%%%%%%%%%%%%%%%@@@@%%%%%@@@@<animate attributeName="opacity" from="0" to="1" dur=".15s" begin="0.902s" fill="freeze"/></text><text x="226" y="454.0" text-anchor="middle" class="ascii" opacity="0">@@@@@@@@@@@@@@@@%@@@@@@@@@@@%%%%%%%@%%%%%%%@@%@@@@@@@@@@@@@@@<animate attributeName="opacity" from="0" to="1" dur=".15s" begin="0.924s" fill="freeze"/></text><text x="226" y="463.0" text-anchor="middle" class="ascii" opacity="0">@@@@@@@@@@@@@@@@%@@@@@@@@@@@%%%%%@%%%%%%%%%%%@@@@@@@@@@@@@@@@<animate attributeName="opacity" from="0" to="1" dur=".15s" begin="0.946s" fill="freeze"/></text><text x="226" y="472.0" text-anchor="middle" class="ascii" opacity="0">@@@@@@@@@@@@@@@@@@@@@@@%@@@@%%%%@@@@%%%%%@@@@@@@@@@@@@@@@@@@@<animate attributeName="opacity" from="0" to="1" dur=".15s" begin="0.968s" fill="freeze"/></text></g><rect x="28" y="58" width="408" height="2" fill="#2563EB" opacity=".4"><animate attributeName="y" values="58;486" dur="4.8s" repeatCount="indefinite"/></rect></g>
<text x="38" y="494" class="top" fill="#10B981">profile.rendered ✓</text>

<g filter="url(#shadow)"><rect x="454" y="14" width="708" height="492" rx="18" fill="#FFFFFF" stroke="url(#accent)" stroke-opacity=".58"/></g>
<circle cx="475" cy="40" r="5" fill="#FB7185"/><circle cx="492" cy="40" r="5" fill="#FBBF24"/><circle cx="509" cy="40" r="5" fill="#34D399"/>
<text x="540" y="44" class="top"><tspan fill="#10B981">mufeed@cyber-sec</tspan>:~$ whoami</text><text x="1134" y="44" text-anchor="end" class="top" fill="#2563EB">&lt;/&gt; Secure · Analyze · Protect</text><path d="M454 62H1162" stroke="#CBD5E1" stroke-opacity=".6"/>
<text x="478" y="96" class="hello">Hi there 👋</text><text x="478" y="141" class="name">MUHAMMED MUFEED K M</text>
<rect x="478" y="158" width="505" height="34" rx="10" fill="#2563EB" fill-opacity=".07" stroke="url(#accent)" stroke-opacity=".7"/><text x="495" y="180" class="designation">◈  Cyber Security Facilitator &amp; Cybersecurity Researcher (R&amp;D Team)</text><rect x="964" y="168" width="7" height="15" fill="#2563EB"><animate attributeName="opacity" values="1;0;1" dur=".9s" repeatCount="indefinite"/></rect>
<path d="M478 206H1138" stroke="#CBD5E1" stroke-dasharray="2 3" stroke-opacity=".65"/><g opacity="0"><g transform="translate(458 231)" fill="#8B5CF6" color="#8B5CF6"><path d="M8 1.5A5.5 5.5 0 0 0 2.5 7c0 4 5.5 9 5.5 9s5.5-5 5.5-9A5.5 5.5 0 0 0 8 1.5Zm0 7.3A2 2 0 1 1 8 4.8a2 2 0 0 1 0 4Z"/></g><text x="482" y="244" class="label">Location</text><text x="580" y="244" class="value">Kochi, Kerala, India</text><animate attributeName="opacity" values="0;1" dur=".4s" begin="0.60s" fill="freeze"/></g><g opacity="0"><g transform="translate(458 269)" fill="#8B5CF6" color="#8B5CF6"><path d="M1 5 8 1.8 15 5 8 8.5 1 5Zm2.5 2.5V11c2.8 2 6.2 2 9 0V7.5L8 10 3.5 7.5Z"/></g><text x="482" y="282" class="label">Education</text><text x="580" y="282" class="value">B.Tech IT</text><animate attributeName="opacity" values="0;1" dur=".4s" begin="0.72s" fill="freeze"/></g><g opacity="0"><g transform="translate(458 307)" fill="#8B5CF6" color="#8B5CF6"><circle cx="8" cy="8" r="6" fill="none" stroke="currentColor" stroke-width="1.6"/><circle cx="8" cy="8" r="2.3"/><path d="M8 0v3M8 13v3M0 8h3M13 8h3" stroke="currentColor" stroke-width="1.3"/></g><text x="482" y="320" class="label">Current Focus</text><text x="580" y="320" class="value">VAPT · SOC Monitoring · Threat Research</text><animate attributeName="opacity" values="0;1" dur=".4s" begin="0.84s" fill="freeze"/></g><g opacity="0"><g transform="translate(458 345)" fill="#8B5CF6" color="#8B5CF6"><path d="M6.5 10.5 5 12a3 3 0 0 1-4-4l2.5-2.5a3 3 0 0 1 4 0l.7.7-1.5 1.5-.7-.7a.9.9 0 0 0-1.2 0L2.4 9.4a.9.9 0 0 0 1.2 1.2L5 9.2l1.5 1.3Zm3-5L11 4a3 3 0 0 1 4 4l-2.5 2.5a3 3 0 0 1-4 0l-.7-.7 1.5-1.5.7.7a.9.9 0 0 0 1.2 0l2.4-2.4a.9.9 0 0 0-1.2-1.2L11 6.8 9.5 5.5Z"/></g><text x="482" y="358" class="label">Portfolio</text><text x="580" y="358" class="value">mufeedkm010.github.io/mufeed-portfolio</text><animate attributeName="opacity" values="0;1" dur=".4s" begin="0.96s" fill="freeze"/></g><g opacity="0"><g transform="translate(458 383)" fill="#8B5CF6" color="#8B5CF6"><path d="M1 3h14v10H1V3Zm1.5 1.5L8 8.5l5.5-4H2.5ZM2.5 11.5h11V6.3L8 10.2 2.5 6.3v5.2Z"/></g><text x="482" y="396" class="label">Email</text><text x="580" y="396" class="value">mufeedkm010@gmail.com</text><animate attributeName="opacity" values="0;1" dur=".4s" begin="1.08s" fill="freeze"/></g><g opacity="0"><g transform="translate(458 421)" fill="#8B5CF6" color="#8B5CF6"><path d="M3 1.5 6 4.3 4.5 6c1 2.2 2.8 4 5 5l1.7-1.5 2.8 2.9-1.8 2c-.5.6-1.2.7-1.9.5C5.6 13.6 2.3 10.4 1 5.6.8 5 1 4.2 1.5 3.7L3 1.5Z"/></g><text x="482" y="434" class="label">Phone</text><text x="580" y="434" class="value">9342934469</text><animate attributeName="opacity" values="0;1" dur=".4s" begin="1.20s" fill="freeze"/></g>
<path d="M842 219V430" stroke="#CBD5E1" stroke-opacity=".65"/><text x="866" y="234" class="section">⚡ Skills &amp; Tools</text><g transform="translate(866 246)"><rect width="90" height="28" rx="8" fill="#F8FAFC" fill-opacity=".55" stroke="#CBD5E1" stroke-opacity=".75"/>
        <g transform="translate(7 6)"><path d="M1 5c5-4 10-3 14 1-5-1-8 1-10 5 2-1 5-1 8 1-5 3-10 2-12-2 3 0 5-1 7-3-3 1-5 0-7-2Z" fill="#557C94"/></g><text x="29" y="18.5" class="skill">Kali Linux</text></g><g transform="translate(962 246)"><rect width="90" height="28" rx="8" fill="#F8FAFC" fill-opacity=".55" stroke="#CBD5E1" stroke-opacity=".75"/>
        <g transform="translate(7 6)"><circle cx="8" cy="8" r="6" fill="none" stroke="#38BDF8" stroke-width="1.5"/><path d="M8 2v12M2 8h12M4 4l8 8M12 4l-8 8" stroke="#38BDF8" stroke-width=".8"/></g><text x="29" y="18.5" class="skill">Nmap</text></g><g transform="translate(1058 246)"><rect width="90" height="28" rx="8" fill="#F8FAFC" fill-opacity=".55" stroke="#CBD5E1" stroke-opacity=".75"/>
        <g transform="translate(7 6)"><rect width="16" height="16" rx="3" fill="#F97316"/><path d="M8 2 5 7h3l-2 7 5-8H8Z" fill="white"/></g><text x="29" y="18.5" class="skill">Burp Suite</text></g><g transform="translate(866 282)"><rect width="90" height="28" rx="8" fill="#F8FAFC" fill-opacity=".55" stroke="#CBD5E1" stroke-opacity=".75"/>
        <g transform="translate(7 6)"><path d="M2 14V3l6 4 6-4v11l-3-2V7L8 9 5 7v5Z" fill="#2563EB"/></g><text x="29" y="18.5" class="skill">Metasploit</text></g><g transform="translate(962 282)"><rect width="90" height="28" rx="8" fill="#F8FAFC" fill-opacity=".55" stroke="#CBD5E1" stroke-opacity=".75"/>
        <g transform="translate(7 6)"><path d="M1 12c4-1 5-7 8-10 0 5 2 7 6 10H1Z" fill="#1679A7"/><path d="M2 13h13" stroke="#38BDF8" stroke-width="1.5"/></g><text x="29" y="18.5" class="skill">Wireshark</text></g><g transform="translate(1058 282)"><rect width="90" height="28" rx="8" fill="#F8FAFC" fill-opacity=".55" stroke="#CBD5E1" stroke-opacity=".75"/>
        <g transform="translate(7 6)"><path d="M8 1 14 4.5v7L8 15l-6-3.5v-7L8 1Z" fill="none" stroke="#06B6D4" stroke-width="1.5"/></g><text x="29" y="18.5" class="skill">Nessus</text></g><g transform="translate(866 318)"><rect width="90" height="28" rx="8" fill="#F8FAFC" fill-opacity=".55" stroke="#CBD5E1" stroke-opacity=".75"/>
        <g transform="translate(7 6)"><rect width="16" height="16" rx="4" fill="#111827"/><path d="M4 5l5 3-5 3M10 11h3" fill="none" stroke="#65A30D" stroke-width="1.8"/></g><text x="29" y="18.5" class="skill">Splunk</text></g><g transform="translate(962 318)"><rect width="90" height="28" rx="8" fill="#F8FAFC" fill-opacity=".55" stroke="#CBD5E1" stroke-opacity=".75"/>
        <g transform="translate(7 6)"><circle cx="8" cy="8" r="8" fill="#3776AB"/><text x="8" y="11" text-anchor="middle" font-size="7" font-weight="800" fill="#FFD43B">Py</text></g><text x="29" y="18.5" class="skill">Python</text></g><g transform="translate(1058 318)"><rect width="90" height="28" rx="8" fill="#F8FAFC" fill-opacity=".55" stroke="#CBD5E1" stroke-opacity=".75"/>
        <g transform="translate(7 6)"><rect width="16" height="16" rx="3" fill="#111827" stroke="#64748B"/><path d="M3 5l3 3-3 3M8 11h5" fill="none" stroke="white" stroke-width="1.3"/></g><text x="29" y="18.5" class="skill">Bash</text></g><g transform="translate(866 354)"><rect width="90" height="28" rx="8" fill="#F8FAFC" fill-opacity=".55" stroke="#CBD5E1" stroke-opacity=".75"/>
        <g transform="translate(7 6)"><circle cx="8" cy="8" r="7" fill="none" stroke="#0F172A" stroke-width="1.5"/><path d="M4 12 7 4l2 4 3-4" fill="none" stroke="#0F172A" stroke-width="1.5"/></g><text x="29" y="18.5" class="skill">OWASP</text></g><g transform="translate(962 354)"><rect width="90" height="28" rx="8" fill="#F8FAFC" fill-opacity=".55" stroke="#CBD5E1" stroke-opacity=".75"/>
        <g transform="translate(7 6)"><ellipse cx="8" cy="9" rx="6" ry="7" fill="#111827"/><ellipse cx="8" cy="10" rx="4" ry="5" fill="white"/><circle cx="6.5" cy="5" r="1" fill="white"/><circle cx="9.5" cy="5" r="1" fill="white"/><path d="M6 8h4L8 10Z" fill="#FBBF24"/></g><text x="29" y="18.5" class="skill">Linux</text></g><g transform="translate(1058 354)"><rect width="90" height="28" rx="8" fill="#F8FAFC" fill-opacity=".55" stroke="#CBD5E1" stroke-opacity=".75"/>
        <g transform="translate(7 6)"><rect x="2" y="2" width="12" height="12" rx="2" transform="rotate(45 8 8)" fill="#F05032"/><circle cx="6" cy="6" r="1.3" fill="white"/><circle cx="10" cy="10" r="1.3" fill="white"/><path d="M6 6l4 4M8 8l2-2" stroke="white" stroke-width="1"/></g><text x="29" y="18.5" class="skill">Git</text></g><g transform="translate(866 390)"><rect width="90" height="28" rx="8" fill="#F8FAFC" fill-opacity=".55" stroke="#CBD5E1" stroke-opacity=".75"/>
        <g transform="translate(7 6)" fill="#2496ED"><rect x="1" y="6" width="3" height="3"/><rect x="5" y="6" width="3" height="3"/><rect x="9" y="6" width="3" height="3"/><rect x="5" y="2" width="3" height="3"/><rect x="9" y="2" width="3" height="3"/><path d="M0 10h14c-.5 3-3 5-7 5-3 0-5.5-1.7-7-5Z"/></g><text x="29" y="18.5" class="skill">Docker</text></g><g transform="translate(962 390)"><rect width="90" height="28" rx="8" fill="#F8FAFC" fill-opacity=".55" stroke="#CBD5E1" stroke-opacity=".75"/>
        <g transform="translate(7 6)" fill="#3B82F6"><ellipse cx="8" cy="3" rx="6" ry="2.5"/><path d="M2 3v9c0 1.4 12 1.4 12 0V3M2 7c0 1.4 12 1.4 12 0" fill="none" stroke="#3B82F6" stroke-width="1.5"/></g><text x="29" y="18.5" class="skill">SQL</text></g><g transform="translate(1058 390)"><rect width="90" height="28" rx="8" fill="#F8FAFC" fill-opacity=".55" stroke="#CBD5E1" stroke-opacity=".75"/>
        <g transform="translate(7 6)"><text x="8" y="9" text-anchor="middle" font-size="7" font-weight="800" fill="#0F172A">aws</text><path d="M2 12c4 2 8 2 12 0" fill="none" stroke="#FF9900" stroke-width="1.5"/></g><text x="29" y="18.5" class="skill">AWS</text></g>
<path d="M478 445H1138" stroke="#CBD5E1" stroke-opacity=".65"/><text x="478" y="474" class="section">Connect with me</text>
<g transform="translate(616 454)"><rect width="510" height="34" rx="17" fill="#F8FAFC" fill-opacity=".45" stroke="#CBD5E1" stroke-opacity=".45"/><g transform="translate(18 9)"><rect x="2" y="2" width="12" height="12" rx="2" transform="rotate(45 8 8)" fill="#F05032"/><circle cx="6" cy="6" r="1.3" fill="white"/><circle cx="10" cy="10" r="1.3" fill="white"/><path d="M6 6l4 4M8 8l2-2" stroke="white" stroke-width="1"/></g><text x="42" y="22" class="social">GitHub</text><rect x="128" y="9" width="16" height="16" rx="2" fill="#0A66C2"/><text x="136" y="21" text-anchor="middle" font-size="12" font-weight="800" fill="white">in</text><text x="152" y="22" class="social">LinkedIn</text><g transform="translate(270 9)" fill="#8B5CF6" color="#8B5CF6"><path d="M6.5 10.5 5 12a3 3 0 0 1-4-4l2.5-2.5a3 3 0 0 1 4 0l.7.7-1.5 1.5-.7-.7a.9.9 0 0 0-1.2 0L2.4 9.4a.9.9 0 0 0 1.2 1.2L5 9.2l1.5 1.3Zm3-5L11 4a3 3 0 0 1 4 4l-2.5 2.5a3 3 0 0 1-4 0l-.7-.7 1.5-1.5.7.7a.9.9 0 0 0 1.2 0l2.4-2.4a.9.9 0 0 0-1.2-1.2L11 6.8 9.5 5.5Z"/></g><text x="294" y="22" class="social">Portfolio</text><g transform="translate(398 9)" fill="#10B981" color="#10B981"><path d="M1 3h14v10H1V3Zm1.5 1.5L8 8.5l5.5-4H2.5ZM2.5 11.5h11V6.3L8 10.2 2.5 6.3v5.2Z"/></g><text x="422" y="22" class="social">Email</text></g>
<rect x="1" y="1" width="1178" height="518" rx="21" fill="none" stroke="url(#accent)" stroke-width="1" stroke-dasharray="220 960"><animate attributeName="stroke-dashoffset" values="0;-1180" dur="8s" repeatCount="indefinite"/></rect>
</g></svg>